<svg id="Layer_1" data-name="Layer 1" xmlns="http://www.w3.org/2000/svg" viewBox="0 0 1074.23 896.81"><defs><style>.cls-1{fill:#63a0f1;}.cls-2{fill:#fbb03b;}.cls-3{fill:#050608;}.cls-4{fill:#39b54a;}.cls-5{fill:#ccc;}.cls-6{fill:#c69c6d;}.cls-7{fill:#050506;}.cls-8{fill:#000001;}.cls-9{fill:#010102;}.cls-10{fill:#0f8038;}.cls-11{fill:#0b8743;}.cls-12{fill:#017627;}.cls-13{fill:#040506;}.cls-14{fill:#070708;}.cls-15{fill:#070809;}.cls-16{fill:#060708;}.cls-17,.cls-19,.cls-20{fill:none;}.cls-17,.cls-18,.cls-19,.cls-24,.cls-25,.cls-26{stroke:#000;}.cls-17,.cls-18,.cls-19,.cls-20,.cls-24,.cls-25,.cls-26{stroke-miterlimit:10;}.cls-17,.cls-24{stroke-width:5.23px;}.cls-18{fill:#fff;stroke-width:8.72px;}.cls-19,.cls-20,.cls-25{stroke-width:6.98px;}.cls-20{stroke:#231f20;}.cls-21{fill:#060809;}.cls-22{fill:#060607;}.cls-23,.cls-24,.cls-25{fill:#ff7bac;}.cls-26{stroke-width:1.46px;}</style></defs><path class="cls-1" d="M771.34,101.8c83.2,19.61,149.11,100.39,204.3,200,55.19,98.82,100.5,215.69,80.73,326.28-18.95,109.81-102.15,212.55-207.59,219.61-106.27,7.84-234.78-80.79-372.35-69C338.86,791.22,192.22,903.38,123,884.55S62.88,715.92,57.12,595.13c-4.94-120-24.71-211.77-35.42-338C11,131.6,48.37,60.44,127.45,39.26c78.26-21.18,198.22,7.63,328.38,46.06C586.81,123.76,687.31,82.19,771.34,101.8Z"/><rect class="cls-2" x="651.36" y="91.01" width="108.15" height="49.33" transform="translate(124.82 532.7) rotate(-45)"/><path class="cls-3" d="M72.56,584.26v-6.89a10.83,10.83,0,0,1,1.88-1.26c4.88-1.2,9.88-.83,14.77-.51,5.87.39,8.5-1.58,7.71-7.58a10.63,10.63,0,0,1,.32-3.35c1.34-7.85,5.29-14.67,8.46-21.81,12.69-22.69,30-39.43,56.73-44,10-2.76,20.34-3.23,30.55-4.48,25.16-3.07,42.16-16.13,51.35-39.81,4.34-11.18,6.38-23,9.93-34.33,4.86-15.58,10.34-30.83,21.2-43.59,13.81-16.23,31.88-24.31,52.24-28A323,323,0,0,1,374.82,344c22.68-.76,43.17-11,50.14-36.14,4.39-15.82,11.39-30.48,23.17-42.39a9.48,9.48,0,0,1,1.41-1.62c16.45-14.13,35.27-23,56.88-25.81a21.08,21.08,0,0,0,7.36-.92,29.5,29.5,0,0,1,13.21.73c15.6,1.34,28.6,7.84,38.43,20.08,2.63,3.28,5.25,4.36,9.38,3.86,17.72-2.17,34.22,1.44,49,11.62,23.73,16.32,31,39.68,28.29,67.17-1.76,17.77-4.31,35.44,2.1,53,6.83,18.72,18.82,32.22,37.25,39.91,5.07,2.12,10.17,4.2,15.16,6.51,15.11,7,27.37,16.76,32.22,34.2,2.91-1.21,5.28-3.18,8.27-3,14.7-4.8,11.91-1.52,11.92,8.79q.08,43.68,0,87.37c0,2.18.46,4.43-.36,6.36,1.27-1.14.37-2.83.38-4.29.06-30.73,0-61.46.08-92.19,0-2.48-.59-5.05.62-7.44,4.66,1.78,3.5,6,3.52,9.33.16,26.85.08,53.7.09,80.54,0,2.75.14,5.52,0,8.26-.29,5.3,2.13,7.31,7.35,7.28,17-.1,33.95-.06,50.92,0,14,0,28-.07,42,0a34.91,34.91,0,0,0,4,.22c19.88.09,39.77,0,59.65.06,4.41,0,8.91,0,10.64,5.38.28,2.83-1.45,4.11-3.79,4.91-21.81,1-43.65.19-65.47.44-3.18,0-6.37,0-9.55.06-27.46.47-54.92.07-82.38.2-2.29,0-4.58.1-6.86,0-4.72-.15-6.46,2.2-6.45,6.72,0,12.36.12,24.73-.06,37.09,0,3.3.7,7-2.86,9.3-2.44-1.66-1.24-4.16-1.26-6.24-.11-14.68-.06-29.36,0-44-.17,16.67.14,33.34-.21,50,.38,4.81-3.64,6-6.69,7.68-17.48,9.59-35.32,18.49-52.9,27.89-39.19,21-78.77,41.23-117.86,62.4-4.86,2.63-9.14,3.27-14.07,0-21.56-14.35-43.43-28.22-65.27-42.12-8,.58-15.46,3.71-23.26,5.25-29.07,5.75-57.78,4.11-86.24-3.68-2.65-.72-5.26-1.66-8.09-1.08-8.9-1.83-16.79-6-24.23-11-29.26-19.46-49.31-45.39-56-80.6a50.92,50.92,0,0,1-1-10.93c.14-5-2.29-7.08-7.12-6.91-2.28.08-4.58,0-6.87,0-47.4,0-94.81.06-142.22,0-21.79,0-43.58,0-65.36,0C78.58,586.18,75.25,586.67,72.56,584.26Z"/><path class="cls-4" d="M210.11,576.94a151.35,151.35,0,0,1,39.34-58.61c39.59-36.61,87.77-53.46,140.32-60,3.58-.45,4.72.54,5.76,3.72,13.21,40.25,59.62,50.43,89.29,38.79,6.52-2.56,11.23-7,14.91-12.69,2.32-3.58,4.88-4.78,9.51-4.66,12.18.32,22.65,5.55,33.25,10.23,25.49,11.25,49.52,24.9,69,45.35.75.79,1.48,1.61,2.52,2.75-12.51,6.54-24.52,13-36.71,19.11-4.78,2.39-7.94,5.18-6.86,11,.76,4.13-.39,6-5.34,5.94q-70.23-.32-140.45,0c-4.45,0-6.09-1.52-6.7-5.64a229.07,229.07,0,0,1-2.31-27.42c-.88-33.65-34.53-54.81-68.13-40.1-2.35,1-5,2.38-3.4,5.58s4.17,1.65,6.53.71c16.36-6.51,31.85-5.92,45.59,6.25,7.91,7,11.92,16,12.5,26.6.58,10.75-.15,21.69,3.07,32.13,9.82,31.86,37.07,55.79,78.76,46.27a14.36,14.36,0,0,0,3.33-.81c21.1-10.89,33.59,2.65,45.08,16.69,12.87,15.73,12,22-4.72,32.78-41.3,26.7-86.1,33.24-133.68,21.26-33.51-8.43-59-27.7-76-57.69-14.19-25-16.85-51.44-7.21-78.82.23-.65.36-1.33.58-2,1-2.89,3.67-6.62-.86-8.08-4.3-1.39-4.95,3.3-5.88,6.07-2.41,7.16-4.62,14.42-5.4,22-.32,3.1-1.28,4.23-4.61,4.21-29.83-.15-59.67-.1-89.51-.13C211.32,577.7,210.93,577.34,210.11,576.94Z"/><path class="cls-5" d="M601.35,716.4c-3.87,1.35-5.93,2.85-10.7,5.77l-10,5.23c-3.12-1.4-3.19-4.27-3.19-7q-.15-73.93,0-147.87a13.48,13.48,0,0,1,.54-3.39,347.68,347.68,0,0,1,35.88-19c5.19-1.15,9.53-3.9,13.59-7.18,11.68-6.94,23.68-13.25,36-19a33.48,33.48,0,0,0,13.69-7.11c11.63-7,23.63-13.26,35.88-19.09,4.19-.88,8.05-2.39,11-5.69,8.28-5.39,17.27-9.45,26.07-13.87,2.85,1.18,3.25,3.72,3.25,6.29,0,50,.51,100.08-.25,150.11a13.13,13.13,0,0,1-.33,2l-64.67,34.35c-6,1.74-11.76,4-16.32,8.5l-41.5,21.85"/><path class="cls-6" d="M552.74,328.76c3.53,9,6.23,18.13,10.65,26.67,9,17.29,22.13,30.09,39.17,39.12,2,1.07,3.22,1.61,2.12,4.5-9.69,25.64-22.43,49.1-45.38,65.5-24.59,17.57-60.28,16.74-84.13-1.94a7.37,7.37,0,0,0-1.61-1.28c-3-1.11-5.53-7.22-8.93-2.26-2.88,4.21,2.56,6.14,5.05,8.19,7.67,6.28,16.54,10.53,26.15,13.66-5.81,12.36-16.69,15.82-28.49,17-26.64,2.71-54.67-8.87-64.84-36.6-1.53-4.18-1.62-7.59.65-11.62,7.73-13.69,15.08-27.59,23.21-42.59,1.22,6.41,2.19,11.53,3.18,16.66.48,2.5,1.58,4.45,4.55,3.87,2.76-.54,2.7-2.64,2.31-4.83-1.52-8.57-3-17.15-4.48-25.73-.52-3.1-2.62-3.69-5.3-4.34-6.74-1.65-9.94-6.58-8.65-12.57,1.17-5.44,6.32-8.61,12.66-7.68,47.53,6.95,87.77-6.68,120.15-42.55A8.24,8.24,0,0,1,552.74,328.76Z"/><path class="cls-1" d="M569.48,584.38c2.28,3.85.58,8,1,12.07.31,2.75-2,2.57-3.77,2.64-13.38.51-24,7.17-33.23,16-3.47,3.3-5.76,3.39-9,.5-7.08-6.31-14.81-6.93-23.57-3.46a75.51,75.51,0,0,1-35.74,4.72c-20.43-2.08-33-15-42.63-31.8.6-1.73,2-1.46,3.4-1.46,46.75.11,93.51,0,140.26.05A4.5,4.5,0,0,1,569.48,584.38Z"/><path class="cls-5" d="M571,727.51c-4.07,1.11-6.1-2.53-8.75-4.19-16.58-10.37-32.92-21.13-49.89-32.12,10.94-5.35,21-10.55,30.12-17.37,2.55-1.91,6.19-3.52,7.22-6.11,4.08-10.28,10.54-5.48,16.69-3.32,1.7.6,3.52,1.09,4.59,2.78,1.72,4.16.69,8.51.74,12.76.16,13.64.1,27.29,0,40.94C571.72,723.09,572.41,725.44,571,727.51Z"/><path class="cls-6" d="M570.52,614.11c1.7,6-2.13,6.53-7.2,6.08-2.89-.26-6.72-.7-6.54,3.65.16,3.81,3.82,3.47,6.45,3.07,6.06-.93,8,1.25,7.43,7.39-.62,6.57-.29,13.26-.07,19.88.11,3.37-1.05,4-4,3-7.19-2.26-13.82-4.47-16.13-13.33-1.92-7.38-7.76-12.77-13.06-18.12-1.64-1.66-2.88-2.54-.47-4.69,7.42-6.61,15.3-12.33,25.22-14.51C570.08,604.8,570.53,605.22,570.52,614.11Z"/><path class="cls-7" d="M502.25,694.31c-20,7.9-41,10.65-62.31,10.3-18.78-.31-37.22-3-54.75-10.23,5.62-2.2,10.57,1.18,15.48,2.55a154.8,154.8,0,0,0,41.83,5.37c19.71-.06,39.47-2.6,58.22-9.78.95-.36,2.27-1.81,2.88.33C503.69,693.19,502.72,693.82,502.25,694.31Z"/><path d="M754.35,476.79c1.81,1.63,1.26,3.81,1.26,5.81q0,74.94,0,149.87c0,1.34-.15,2.68-.27,4,0,.12-.33.29-.5.29a1.84,1.84,0,0,1-.63-.25c-1-1.7-.61-3.57-.61-5.37q0-74.53,0-149.06C753.61,480.32,753.11,478.41,754.35,476.79Z"/><path class="cls-8" d="M576.52,728.94c-2.11-2.09-1.25-4.76-1.25-7.17q-.07-72.76,0-145.53c0-2.41-.9-5.09,1.31-7.13,1.13,1.67.67,3.56.67,5.35q0,74.58,0,149.16C577.25,725.4,577.75,727.31,576.52,728.94Z"/><path d="M419.17,579.66c5.93-1.06,138.15-1.38,150.11,0Z"/><path d="M569.48,584.38q-69.35.12-138.7.25c-2.74,0-5.47.24-8.2.37,0-1.35-.15-3,1.88-2.89,47.74,1.78,95.5.28,143.24.79a8.24,8.24,0,0,1,1.9.34c.11,0,.23.37.2.55A2.14,2.14,0,0,1,569.48,584.38Z"/><path class="cls-9" d="M746,472.64c2.37-2.56,5.75-3.34,8.68-4.89,2.21-1.17,4.35-1.44,5.32,1.67q-.13,49.44-.26,98.89c0,2.47,0,5,0,8.41-2.05-2.88-1.28-5.11-1.29-7.16q-.09-45.67,0-91.34c0-9.1,0-9.09-8.24-5.56C748.77,473.24,747.37,474.64,746,472.64Z"/><path d="M303.46,580H210.75v-.66h93C303.64,579.51,303.55,579.73,303.46,580Z"/><path d="M571,727.51c-.76-20.11-.7-40.22,0-60.33,1.3-.78,1.51.08,1.51,1.07q0,28.17,0,56.33A3.35,3.35,0,0,1,571,727.51Z"/><path class="cls-8" d="M759.9,639.71l-1,1.25c-1.29-10.84-.21-21.72-.48-32.58a100.26,100.26,0,0,1,1.48-22.57Q759.9,612.78,759.9,639.71Z"/><path class="cls-10" d="M443,266c0,.43,0,.87,0,1.3"/><path class="cls-11" d="M1060,217.86c1.36-2.58,0-5.61,1.33-8.19"/><path class="cls-12" d="M1060,217.86c-.32-2.85-.79-5.73,1.33-8.19"/><path class="cls-11" d="M1061.42,558.06c-2.12-2.27-4.34-4.54,0-6.85"/><path class="cls-12" d="M1044,690.61c0-2.28,0-4.57,0-6.85"/><path class="cls-13" d="M527.26,434.48c-7.79.06-14.17-3.3-19.79-8.32-1.65-1.48-3.68-3.29-1.36-5.78,2.12-2.28,4.17-1.16,6,.51,4.17,3.83,8.76,6.33,14.64,6.74,5.39.37,7.71-1.41,8.43-6.94,2.05-15.68,4.62-31.3,7-46.95.14-.91.13-1.85.34-2.73.57-2.35,1.5-4.67,4.46-4.15,2.66.47,2.69,2.79,2.39,4.93q-2.33,16.35-4.75,32.68c-.92,6.13-1.93,12.24-3,18.35C540,432.65,537.58,434.6,527.26,434.48Z"/><path class="cls-14" d="M515.83,455c-9.87-.47-18.55-3.85-25.68-11.06-2-2.06-3.39-4.16-1-6.4,2.17-2.07,4.12-.33,5.87,1.37,6.94,6.76,15.2,9.95,24.94,8.93,2.72-.28,6.28-1.18,6.59,2.58.33,4-3.47,4.07-6.45,4.34C518.69,454.87,517.31,454.9,515.83,455Z"/><path class="cls-15" d="M581.43,398.37c-.66,4.68-3.36,7.19-7.88,7-4.12-.2-7-2.56-7-6.94,0-4.63,2.85-7.25,7.39-7.26S580.92,394,581.43,398.37Z"/><path class="cls-16" d="M502.57,383.14c-.68,4.09-3.14,7-7.66,6.62-4.32-.37-7-3.19-6.69-7.85.31-4.35,3.29-6.69,7.24-6.61C499.84,375.4,502.44,378.18,502.57,383.14Z"/><path class="cls-11" d="M902.44,266.24l-10.82-1.66"/><path class="cls-17" d="M652.86,145.17a7.31,7.31,0,0,0,.9-2.44c-4.62-7.95-4.55-8.62,2-15.14q29.5-29.53,59-59.08c1.74-1.74,4-3.12,4.72-5.71,1.95-2.63,4.61-1.78,7.16-1.44,2.89-.52,3.86,3.51,6.79,2.89,2.32-2.17,4.58-4.42,7-6.5,2.94-2.54,5.76-4.85,1.08-8.46-1.71-1.32-1.44-3.29.25-4.72s3.41-1,4.87.47q14.79,14.74,29.54,29.53c1.45,1.45,1.94,3.15.52,4.88-1.15,1.39-3.13,2.07-4.19.69-4.5-5.86-7.11-1.38-10,1.59-1.9,2-3.68,4-5.51,6-.5,2.31,2.2,3.56,1.91,5.81.92,4.44-.86,7.6-4,10.74q-31.2,30.93-62.14,62.12c-4.16,4.2-8,6-12.84,1.3-2.26-2.22-4-1-5.86.76"/><path class="cls-18" d="M693.09,601.52c0,10.85-8.45,21.34-19.69,23-12.23,1.84-21.94-7.42-20.72-20.12,1.15-12,11.6-21.21,22.56-21.21C685.4,583.22,693.09,591.21,693.09,601.52Z"/><polygon class="cls-17" points="675.65 166.39 653.85 142.84 644.26 152.44 666.06 175.98 675.65 166.39"/><line class="cls-19" x1="659.96" y1="122.79" x2="673.91" y2="138.48"/><line class="cls-19" x1="677.4" y1="107.09" x2="691.35" y2="122.79"/><line class="cls-19" x1="694.02" y1="90.24" x2="707.98" y2="105.94"/><line class="cls-19" x1="733.2" y1="63.49" x2="757.62" y2="87.91"/><path class="cls-20" d="M924.23,226.82A104.62,104.62,0,0,0,818.41,383.6l-35.75,42.1L841,413.45c14.77,13.58,30.28,17,51.6,20.24a104.64,104.64,0,1,0,31.64-206.87Z"/><path class="cls-20" d="M697.88,10A104.62,104.62,0,0,0,617,181l-29,47,55.81-20.93c16.65,11.19,32.5,12.21,54.07,12.21a104.65,104.65,0,0,0,0-209.29Z"/><path class="cls-3" d="M893.88,281.38c-30,8.87-42.28,51.81-21.46,75.13,2.56,2.87,4.65,3.47,7.16.25a13.64,13.64,0,0,1,1.86-2c2-1.67,4.08-3.49,6.67-1.52s2.08,4.79.87,7.47c-1.3,2.87-4.55,4.68-4.4,8.29,2.78,4.27,7.52,4.75,11.77,6,2.39.72,5,.69,7.39,1.29s6.7.28,6,3.65c-.51,2.56-4.62,1.69-7.3,1.49-8.4-.63-15.59-5-23.36-7.52-4.07-.22-4.72,3.56-6.74,5.75-4.22,4.59,1.48,4.91,3,6.92,1.28,1.64,3.05,3,1.42,5.3s-3.86,1.75-5.49.52c-5.64-4.27-11.12-8.77-16.57-13.29-1.61-1.33-3.16-3-1.1-5.17a3.48,3.48,0,0,1,5.45,0c5.07,5.21,7.71,1.51,10.76-2.49,1.58-2.07,1.66-3-.26-4.89a52.71,52.71,0,0,1-14.62-26c-1.37-6.17-5.4-3-8.48-3.16-3.86-.17-4.48,2-3.68,5.35.65,2.74,1,6-3,6.29s-3.61-3.06-3.9-5.84c-.61-5.91-1.53-11.79-2.22-17.69-.27-2.35-.28-4.92,2.93-5.17,3-.23,3.92,1.85,4,4.44.07,3.79.56,6.6,5.76,5.68,4-.71,6.79-.61,7.09-6.35,1.4-26.34,17.14-45.55,42.67-52.47,6.84-1.86,2.22-6.09,2.74-9.23.71-4.31-2.15-3.32-4.71-3.07s-6.15,1.43-6.73-2.48c-.68-4.56,3.49-4,6.19-4.39,5.88-.9,11.81-1.46,17.7-2.3,2.72-.39,4.71.4,5.09,3.18.41,3.06-1.94,3.91-4.37,4-3.57.13-6.72-.3-6,5.36.63,4.9,1.16,7.87,7.35,7.24,6-.6,11.7,1.83,17.38,3.63.82,1.56,2.41,1.36,3.78,1.66,9.37,3.15,11.78,1.9,12.4-6.41-1.11-1.11-2.3-2.16-3.32-3.35s-1.77-2.7-.33-4.21c1.2-1.26,2.66-2,4.2-.82,6.25,4.85,12.61,9.58,18.54,14.79,2.9,2.56-.24,4.25-2,5.85-1.39,1.43-2.31,0-3.44-.51-2.16-.93-3.6-4.76-6.77-1.74-2.74,2.61-4.73,5.37-1.88,9.13,6.4,8.22,11.37,17.17,14,27.32,1.84.43,3.88-1.07,5.6.57,4.83.55,6.71-1.24,5.49-6.26-.6-2.46-.28-5.51,3.15-5.63,2.92-.11,3.28,2.64,3.57,4.94.82,6.31,1.64,12.62,2.39,18.94.3,2.53-.33,4.73-3.29,4.94-2.69.19-3.49-1.87-3.48-4.09,0-7.9-4.57-6.64-9.46-4.89-3.35,1.55-1.71,4.56-2.05,7-.45,3.09-.9,6.17-1.43,9.24a5.45,5.45,0,0,1-2.07,3.74c-2.1,4.27-4,8.62-6.36,12.78-2.43,4.38,1.69,4.74,3.63,6.48,1.91-.1,3.39,1.85,5.43,1.15,1.12-1.13,2.2-2.29,3.36-3.37,1.44-1.34,3.12-2.16,4.86-.67,1.94,1.67,1.59,3.49.07,5.38-4,5-7.93,10-11.87,15-1.29,1.64-2.56,3.54-5,2.77-2.89-.92-2.65-3.3-2.1-5.66.28-2.79,2.45-4,3.89-5.51-1.85-.7-4-1.78-4.77-4.47-2-2.87-3.94-3.47-6.32-.25a34.35,34.35,0,0,1-4.43,4.25c-2.57,2.64-4.86,5.7-9,5.81l-3,.54c-4.27.32-7.93,2.75-12.09,3.45-2.31.39-5.21.54-5.77-1.95s2.55-2.4,4.29-3c1.28-.45,2.6-.74,3.53-1.84a8,8,0,0,1,2.19-1.77c10.52-4.55,19.85-10.58,25.81-20.79a43.88,43.88,0,0,0,4.5-9.46c1.4-2.69,1.51-5.71,2.18-8.59,1-4.15,1.26-7.13-4.49-8.16-4.27-.76-5.24-5.94-1.68-7.57,7.24-3.31,4.42-7.63,2.27-12.21-.49-1-1-2-1.56-3.05a55.48,55.48,0,0,0-7.11-9.84,37.72,37.72,0,0,0-12.18-8.78c-4.88-2.54-9.82-4.88-15.35-5.76"/><path class="cls-21" d="M923.53,393.69a15.51,15.51,0,0,0,2,.14c2.81-.16,6.64-1.65,6.9,2.85.23,4.13-3.79,3.82-6.56,4.18-4.69.6-9.42.91-14.12,1.34a10.23,10.23,0,0,1-6,.36,3.46,3.46,0,0,1-2.46-3,2.52,2.52,0,0,1,2.23-3c6-.24,9.72-2.12,8.38-9.09-.1-.53,1.6-1.4,2.46-2.11a2.11,2.11,0,0,1,3,1l1.82,3C922.21,390.67,921.74,392.8,923.53,393.69Z"/><path class="cls-22" d="M879.12,373.92c-.42-.53-1.26-1.12-1.2-1.59.2-1.51,1.43-.74,1.91-.36,4.77,3.73,10.61,5.07,16.06,7.22,4.2,1.66,8.64,2.5,13.94,0-9-1.69-17.54-2-24.9-6.54-1.3-.8-1.33-.75-1.91-3.39a85.75,85.75,0,0,0,38.35,5c.65-.06,1.19.59,1.68,1.05-1,2.41-1,2.41-7.67,4.16,4.29,1.79,7.75.43,11.28-.72,2-.64,3.83-2.93,6.1-.58l-11.92,5.52c-2.48,1.79-4.91-1-7.38-.08C901.28,383,889.3,381.67,879.12,373.92Z"/><path class="cls-16" d="M863.83,273.94c-.41.66-1.06,1.84-1.83,2.93-1.58,2.22-4.28,3.75-1.11,7.28,1.91,2.13-1.34,5.19-3.08,4.27-4.7-2.48-5.73,1.3-7.79,3.47-1.51,1.59-3.13,3.09-5.25,1.46-2.3-1.78-1.7-3.78,0-5.9,4.29-5.32,8.37-10.8,12.6-16.17a3.81,3.81,0,0,1,4.87-1.35C863.63,270.57,864.19,271.8,863.83,273.94Z"/><line class="cls-17" x1="857.15" y1="283.72" x2="867.9" y2="294.18"/><line class="cls-19" x1="915.6" y1="377.73" x2="919.44" y2="395.57"/><circle class="cls-23" cx="910.23" cy="325.97" r="49.71"/><path class="cls-24" d="M934.61,296.25c4.51,1.41,7.55,4.16,7.91,9.1.38,5.22-2.37,8.51-6.93,10.55-8,0-12.29-3.11-12.59-9.25C922.7,300.67,927.12,296.72,934.61,296.25Z"/><path class="cls-25" d="M933.72,333c4.77,9,3.62,15-3.75,19.87-7.72,3.19-14.16,1.58-17.84-4.49-3-4.85-1.76-12.44,2.56-16.29C920.27,327.07,926.26,327.36,933.72,333Z"/><path class="cls-24" d="M891.43,338.1a10.23,10.23,0,0,1-11.81,8c-5-1.07-8.83-6.29-8.14-11.18.73-5.14,6.35-9.2,11.62-8.39A10.3,10.3,0,0,1,891.43,338.1Z"/><path class="cls-26" d="M638.64,182c-1.21.76-2.13-.32-1.52-1.49,2.14-4.07,17.4-17.8,17.4-17.8l1.52,1.49S642.86,179.38,638.64,182Z"/></svg>